<svg xmlns="http://www.w3.org/2000/svg" viewBox="0 0 1600 680" width="1600" height="680">
  <defs>
    <linearGradient id="bg3" x1="0" y1="0" x2="0" y2="1">
      <stop offset="0%" stop-color="#1d5c4a"/>
      <stop offset="100%" stop-color="#2f8f6f"/>
    </linearGradient>
  </defs>
  <rect width="1600" height="680" fill="url(#bg3)"/>
  <g opacity="0.15" fill="#ffffff">
    <circle cx="200" cy="140" r="180"/>
    <circle cx="1450" cy="560" r="240"/>
  </g>
  <!-- Schirm -->
  <g transform="translate(820,120)">
    <path d="M0,120 A220,140 0 0 1 440,120 Z" fill="#ffe08a"/>
    <path d="M0,120 A220,140 0 0 1 220,60 Z" fill="#ffd35e"/>
    <path d="M220,60 A220,140 0 0 1 440,120 Z" fill="#ffe9b8"/>
    <rect x="212" y="118" width="16" height="230" rx="6" fill="#f4f4f4"/>
    <path d="M212,340 q0,40 40,40" stroke="#f4f4f4" stroke-width="14" fill="none" stroke-linecap="round"/>
  </g>
  <!-- Person -->
  <g fill="#eaf7f1">
    <circle cx="1000" cy="470" r="46"/>
    <path d="M900,600 q100,-90 200,0 z"/>
  </g>
</svg>
